<svg width="52" height="51" viewBox="0 0 52 51" fill="none" xmlns="http://www.w3.org/2000/svg">
<path d="M18.1461 6.75342C12.0675 6.75342 7.12109 11.7027 7.12109 17.7856C7.12109 23.8649 12.0675 28.8113 18.1468 28.8113C20.9904 28.8113 23.6975 27.7277 25.7682 25.7606C27.8539 23.777 29.0625 21.1063 29.1711 18.2692C29.1861 18.1056 29.1861 17.9492 29.1861 17.7856C29.1861 11.7027 24.2332 6.75342 18.1461 6.75342ZM28.1018 18.2006C28.0025 20.7849 26.9118 23.1942 25.0297 24.9835C23.1589 26.7606 20.7147 27.7392 18.1461 27.7392C12.6568 27.7392 8.19181 23.2742 8.19181 17.7849C8.19181 12.2927 12.6568 7.82414 18.1461 7.82414C23.6425 7.82414 28.1139 12.2927 28.1139 17.7849C28.1147 17.917 28.1154 18.042 28.1018 18.2006Z" fill="white"/>
<path d="M19.6771 18.208C18.8899 18.8087 17.8035 18.638 17.2285 17.8937C17.0071 17.5966 16.5628 17.9444 16.7864 18.2351C17.3614 18.9801 17.2514 20.0744 16.4721 20.6837C16.1785 20.903 16.5178 21.3537 16.8135 21.1258C17.5535 20.5473 18.6628 20.6637 19.2621 21.4401C19.4785 21.7201 19.9271 21.4094 19.7042 21.0987C19.1035 20.3116 19.2742 19.2244 20.0185 18.6501C20.1478 18.5501 20.1592 18.3673 20.0685 18.2587C19.9756 18.1337 19.7985 18.1108 19.6771 18.208Z" fill="white"/>
<path d="M14.0372 16.2231C13.7994 16.4045 13.5072 16.4852 13.2079 16.4467C12.9115 16.4088 12.6465 16.2567 12.4644 16.0209C12.4044 15.9409 12.2908 15.9267 12.2129 15.9888C12.1394 16.0417 12.1165 16.1567 12.1808 16.2402C12.5501 16.7181 12.4794 17.4217 11.9787 17.8131C11.7901 17.9538 12.0079 18.2438 12.1979 18.0967C12.6729 17.7252 13.3858 17.8002 13.7708 18.2988C13.9115 18.4809 14.1965 18.2767 14.0544 18.0795C13.6687 17.5738 13.7787 16.8759 14.2565 16.5067C14.3394 16.4431 14.3472 16.3252 14.2887 16.2552C14.2294 16.1759 14.1151 16.1609 14.0372 16.2231Z" fill="white"/>
<path d="M16.9332 14.1344C17.1803 14.1659 17.5024 14.5244 17.6482 14.543C17.7274 14.553 17.8039 14.4951 17.8139 14.4151C17.8324 14.2709 17.536 14.1137 17.5989 13.6201C17.6303 13.3751 17.756 13.1559 17.951 13.0059C18.1082 12.8844 17.9224 12.6494 17.7696 12.7716C17.3517 13.0901 16.7746 12.9994 16.4696 12.6044C16.4203 12.538 16.326 12.5266 16.2617 12.578C16.0489 12.7309 16.4932 12.9037 16.4203 13.4694C16.3439 14.063 15.8682 14.0694 16.0417 14.2937C16.2117 14.513 16.341 14.0587 16.9332 14.1344Z" fill="white"/>
<path d="M49.3912 28.0148C49.3912 26.6219 49.0569 25.2326 48.4262 24.0005L44.5291 16.3248H44.8034C45.4248 16.3248 45.9298 15.8198 45.9298 15.1984V11.0184C45.9298 10.3969 45.4248 9.8919 44.8034 9.8919H42.1762L40.6634 3.50761C40.4741 2.71047 39.7698 2.15332 38.9512 2.15332H37.7076C36.8891 2.15332 36.1841 2.70975 35.9955 3.50761L34.4826 9.8919H31.8555C31.4991 9.8919 31.1841 10.0612 30.9776 10.3205C28.3448 5.78905 23.4798 2.93618 18.1476 2.93618C9.95908 2.93618 3.29765 9.59761 3.29765 17.7862C3.29765 24.0234 7.17193 29.3641 12.6369 31.5569H3.14122C2.94622 31.5569 2.76694 31.6626 2.67265 31.8341C2.57765 32.0048 2.58408 32.2134 2.68765 32.3791L4.94194 35.9526C4.94622 35.9598 4.95336 35.9648 4.95765 35.9719H3.14122C2.94622 35.9719 2.76694 36.0776 2.67265 36.2491C2.57836 36.4205 2.58408 36.6284 2.68765 36.7934L4.94194 40.3748C4.94622 40.3819 4.95265 40.3869 4.95694 40.3934H3.14122C2.94622 40.3934 2.76694 40.4991 2.67265 40.6705C2.57765 40.8412 2.58408 41.0498 2.68765 41.2155L4.94194 44.7891C5.35622 45.4612 6.11194 45.8791 6.91265 45.8791H10.7184V47.3984C10.7184 48.1969 11.3676 48.8462 12.1662 48.8462H24.1341C24.9326 48.8462 25.5819 48.1969 25.5819 47.3984V45.8784H27.2655V45.9069C27.2655 47.5276 28.5841 48.8455 30.2041 48.8455H46.4534C48.0741 48.8455 49.3919 47.5269 49.3919 45.9069V44.0869C49.3919 44.0834 49.3898 44.0805 49.3898 44.0762V28.0148H49.3912ZM43.3091 10.9626H44.8041C44.8348 10.9626 44.8591 10.9869 44.8591 11.0176V15.1976C44.8591 15.2284 44.8348 15.2526 44.8041 15.2526H43.6755C43.6684 15.2526 43.6626 15.2498 43.6555 15.2498H43.3098L43.3091 10.9626ZM42.2376 10.9626V15.2498H40.3469V10.9626H41.7541H42.2376ZM37.0376 3.75475C37.1119 3.44261 37.3869 3.22547 37.7076 3.22547H38.9512C39.2719 3.22547 39.5476 3.44332 39.6212 3.75475L41.0755 9.8919H35.5826L37.0376 3.75475ZM39.2755 10.9626V15.2498H37.3848V10.9626H39.2755ZM34.4219 10.9626H34.9062H36.3134V15.2498H34.4226L34.4219 10.9626ZM31.8005 11.0184C31.8005 10.9876 31.8248 10.9634 31.8555 10.9634H33.3505V15.2505H33.0062C32.9991 15.2505 32.9934 15.2534 32.9862 15.2534H31.8562C31.8255 15.2534 31.8012 15.2291 31.8012 15.1984L31.8005 11.0184ZM24.5112 47.3976C24.5112 47.6055 24.3426 47.7741 24.1348 47.7741H12.1662C11.9584 47.7741 11.7898 47.6055 11.7898 47.3976V45.8798H24.5112V47.3976ZM27.2698 44.0698C27.2698 44.0755 27.2662 44.0812 27.2662 44.0869V44.8069H6.91265C6.48122 44.8069 6.07479 44.5841 5.85194 44.2212L4.11194 41.4648H6.91265H27.2698V44.0698ZM27.2698 40.3934H6.91265C6.48122 40.3934 6.07479 40.1705 5.85194 39.8084L4.11122 37.0441H6.91265H27.2698V40.3934ZM27.2698 35.9719H6.91265C6.48122 35.9719 6.07551 35.7484 5.85194 35.3855L4.11194 32.6284H27.2698V35.9719ZM27.2698 31.5569H23.6834C24.9648 31.0426 26.1705 30.3484 27.2698 29.4884V31.5569ZM27.2698 28.0148V28.0934C24.7591 30.3248 21.5326 31.5576 18.1476 31.5576C10.5498 31.5576 4.36908 25.3805 4.36908 17.7869C4.36908 10.1891 10.5498 4.00832 18.1476 4.00832C23.5934 4.00832 28.5184 7.20975 30.7284 12.1705V15.1984C30.7284 15.8198 31.2334 16.3248 31.8548 16.3248H32.1298L28.2276 24.0005C27.6012 25.2391 27.2698 26.6269 27.2698 28.0148ZM48.3198 45.9069C48.3198 46.9348 47.4798 47.7712 46.4484 47.7712H30.2055C29.1784 47.7712 28.3419 46.9348 28.3419 45.9069C28.3419 45.8298 28.3419 44.5455 28.3419 44.6226H48.3205L48.3198 45.9069ZM48.3198 43.5512H28.3412C28.3412 40.4562 28.3412 33.9734 28.3412 28.0141C28.3412 26.7941 28.6319 25.5734 29.1834 24.4855L33.3334 16.3241H43.3276L47.4712 24.4869C48.0262 25.5712 48.3198 26.7905 48.3198 28.0141V43.5512Z" fill="white"/>
<path d="M38.3326 24.2847C34.2826 24.2847 30.9883 27.5762 30.9883 31.6219C30.9883 35.6676 34.2826 38.9583 38.3326 38.9583C42.3783 38.9583 45.669 35.6676 45.669 31.6219C45.669 27.5762 42.3783 24.2847 38.3326 24.2847ZM38.3326 37.8876C34.8733 37.8876 32.0597 35.0769 32.0597 31.6226C32.0597 28.1683 34.8733 25.3569 38.3326 25.3569C41.7876 25.3569 44.5976 28.1683 44.5976 31.6226C44.5976 35.0769 41.7876 37.8876 38.3326 37.8876Z" fill="white"/>
<path d="M38.3352 28.1348H38.333C37.968 28.1348 37.6288 28.2998 37.4009 28.5877C36.1188 30.2127 35.4688 31.4455 35.4688 32.252C35.4688 33.827 36.7544 35.1084 38.3344 35.1084C39.9094 35.1084 41.1908 33.827 41.1908 32.252C41.1908 31.4455 40.5438 30.2134 39.2673 28.5905C39.0409 28.302 38.7016 28.1355 38.3352 28.1348ZM38.3344 34.037C37.3451 34.037 36.5401 33.2362 36.5401 32.252C36.5401 31.8441 36.9871 30.842 38.2421 29.252C38.2714 29.2148 38.308 29.207 38.333 29.207C38.358 29.207 38.3951 29.2155 38.4244 29.2527C39.6744 30.8412 40.1194 31.8441 40.1194 32.252C40.1194 33.2362 39.3187 34.037 38.3344 34.037Z" fill="white"/>
</svg>
