<svg width="52" height="51" viewBox="0 0 52 51" fill="none" xmlns="http://www.w3.org/2000/svg">
<mask id="mask0_239_335" style="mask-type:luminance" maskUnits="userSpaceOnUse" x="1" y="0" width="50" height="51">
<path d="M51 0.5H1V50.5H51V0.5Z" fill="white"/>
</mask>
<g mask="url(#mask0_239_335)">
<mask id="mask1_239_335" style="mask-type:luminance" maskUnits="userSpaceOnUse" x="1" y="0" width="50" height="51">
<path d="M51 0.5H1V50.5H51V0.5Z" fill="white"/>
</mask>
<g mask="url(#mask1_239_335)">
<path d="M50.4383 8.87888L26.2717 0.545547C26.0956 0.484818 25.9044 0.484818 25.7283 0.545547L1.56167 8.87888C1.22562 8.99472 1.0001 9.31097 1 9.66638V49.6664C1 50.1266 1.37313 50.4997 1.83333 50.4997H6C6.46021 50.4997 6.83333 50.1266 6.83333 49.6664V23.8331H45.1667V49.6664C45.1667 50.1266 45.5398 50.4997 46 50.4997H50.1667C50.6269 50.4997 51 50.1266 51 49.6664V9.66638C50.9999 9.31097 50.7744 8.99472 50.4383 8.87888ZM5.16667 22.9997V48.8331H2.66667V17.1664H5.16667V22.9997ZM45.1667 22.1664H6.83333V20.4997H45.1667V22.1664ZM45.1667 18.8331H6.83333V17.1664H45.1667V18.8331ZM49.3333 48.8331H46.8333V17.1664H49.3333V48.8331ZM49.3333 15.4997H2.66667V10.2605L26 2.21472L49.3333 10.2605V15.4997Z" fill="white"/>
<path d="M42.2084 36.4167L39.1251 34.875L36.3751 29.375C35.9521 28.5287 35.0854 27.9956 34.1393 28H17.8659C16.9182 27.9969 16.0512 28.5327 15.6301 29.3817L12.8801 34.8817L9.79677 36.4233C9.515 36.5642 9.33677 36.8517 9.33594 37.1667V48.8333C9.33594 49.7539 10.0821 50.5 11.0026 50.5H14.3359C15.2565 50.5 16.0026 49.7539 16.0026 48.8333V46.3333H36.0026V48.8333C36.0026 49.7539 36.7488 50.5 37.6693 50.5H41.0026C41.9231 50.5 42.6693 49.7539 42.6693 48.8333V37.1667C42.671 36.8493 42.4923 36.5584 42.2084 36.4167ZM17.1209 30.1275C17.261 29.8444 17.55 29.6656 17.8659 29.6667H34.1393C34.4552 29.6656 34.7442 29.8444 34.8843 30.1275L37.1543 34.6667H14.8509L17.1209 30.1275ZM14.3359 48.8333H11.0026V46.3333H14.3359V48.8333ZM41.0026 48.8333H37.6693V46.3333H41.0026V48.8333ZM41.0026 44.6667H15.1693H11.0026V37.6817L13.6993 36.3333H38.3059L41.0026 37.6817V44.6667Z" fill="white"/>
<path d="M16.8307 38H14.3307C13.4102 38 12.6641 38.7461 12.6641 39.6666V41.3333C12.6641 42.2538 13.4102 43 14.3307 43H16.8307C17.7513 43 18.4974 42.2538 18.4974 41.3333V39.6666C18.4974 38.7461 17.7513 38 16.8307 38ZM16.8307 41.3333H14.3307V39.6666H16.8307V41.3333Z" fill="white"/>
<path d="M37.6667 38H35.1667C34.2461 38 33.5 38.7461 33.5 39.6666V41.3333C33.5 42.2538 34.2461 43 35.1667 43H37.6667C38.5872 43 39.3333 42.2538 39.3333 41.3333V39.6666C39.3333 38.7461 38.5872 38 37.6667 38ZM37.6667 41.3333H35.1667V39.6666H37.6667V41.3333Z" fill="white"/>
<path d="M30.1641 38H21.8307C20.9102 38 20.1641 38.7461 20.1641 39.6666V41.3333C20.1641 42.2538 20.9102 43 21.8307 43H30.1641C31.0846 43 31.8307 42.2538 31.8307 41.3333V39.6666C31.8307 38.7461 31.0846 38 30.1641 38ZM30.1641 41.3333H21.8307V39.6666H30.1641V41.3333Z" fill="white"/>
</g>
</g>
</svg>
