<?xml version="1.0" encoding="UTF-8"?>
<svg version="1.1" xmlns="http://www.w3.org/2000/svg" width="499" height="103">
<path d="M0 0 C164.67 0 329.34 0 499 0 C499 33.99 499 67.98 499 103 C334.33 103 169.66 103 0 103 C0 69.01 0 35.02 0 0 Z " fill="#FDFBFD" transform="translate(0,0)"/>
<path d="M0 0 C41.96844059 0 41.96844059 0 49.59375 7.265625 C52.82712468 11.25345377 53.82688191 15.41308413 54.375 20.4375 C53.70092472 26.84121515 52.58082854 32.03511502 47.5625 36.375 C46.38965256 37.26954466 45.20324922 38.14678692 44 39 C42.7934375 39.928125 42.7934375 39.928125 41.5625 40.875 C41.046875 41.24625 40.53125 41.6175 40 42 C42.0491416 46.31398232 44.3948485 50.28242427 47.01171875 54.265625 C48 56 48 56 48 58 C48.66 58 49.32 58 50 58 C50.72703125 59.34191406 50.72703125 59.34191406 51.46875 60.7109375 C58.7841479 74.53137472 58.7841479 74.53137472 70 85 C76.90269441 86.67017721 81.74565311 86.06335358 88 83 C90.6903384 83.14946324 91.64534558 83.72134296 93.75 85.375 C95 87 95 87 95 90 C86.18256894 94.64730484 77.1578467 95.42514014 67.390625 93.48046875 C57.05240108 89.75944135 50.61742312 78.99471977 45.58203125 69.84375 C44.141886 67.25504447 42.60442262 64.82154276 40.9375 62.375 C33.12465693 50.8855249 33.12465693 50.8855249 30.9296875 45.25390625 C28.62611601 42.56329744 27.96371999 42.6007124 24.55078125 42.29296875 C22.80551514 42.22873825 21.05890567 42.19960655 19.3125 42.1875 C14.7028125 42.0946875 14.7028125 42.0946875 10 42 C10 52.89 10 63.78 10 75 C6.7 75 3.4 75 0 75 C0 50.25 0 25.5 0 0 Z " fill="#D02786" transform="translate(332,5)"/>
<path d="M0 0 C3.63 0 7.26 0 11 0 C11.556875 1.44375 12.11375 2.8875 12.6875 4.375 C14.10453105 7.92503569 15.629786 11.34993907 17.375 14.75 C20.04442162 19.95701994 22.31270841 25.30928171 24.5703125 30.703125 C25.94125425 33.86453166 27.42961103 36.93355999 29 40 C29.5983667 39.98428955 30.1967334 39.9685791 30.81323242 39.95239258 C54.45978931 39.41419667 54.45978931 39.41419667 64 43 C66 45 66 45 66.1953125 46.9453125 C66.13020833 48.96354167 66.06510417 50.98177083 66 53 C64.79085937 52.71125 63.58171875 52.4225 62.3359375 52.125 C52.35352606 49.83056886 43.28688314 48.39587636 33 49 C33.433125 49.83144531 33.86625 50.66289063 34.3125 51.51953125 C34.869375 52.60621094 35.42625 53.69289062 36 54.8125 C36.556875 55.89144531 37.11375 56.97039063 37.6875 58.08203125 C39 61 39 61 39 64 C39.66 64 40.32 64 41 64 C41.99 67.3 42.98 70.6 44 74 C40.37 74 36.74 74 33 74 C32.20788071 72.10435574 31.41632424 70.20847629 30.625 68.3125 C30.18414062 67.25675781 29.74328125 66.20101562 29.2890625 65.11328125 C28.86367188 64.08589844 28.43828125 63.05851562 28 62 C27.42378906 60.66001953 27.42378906 60.66001953 26.8359375 59.29296875 C26 57 26 57 26 54 C25.34 54 24.68 54 24 54 C24 53.34 24 52.68 24 52 C23.39414062 52.25394531 22.78828125 52.50789063 22.1640625 52.76953125 C19.45567149 53.88205494 16.73162643 54.9458869 14 56 C13.24332031 56.30808594 12.48664063 56.61617187 11.70703125 56.93359375 C3.37251171 59.93172557 -8.48584719 60.76375641 -17 58 C-17.0825 58.639375 -17.165 59.27875 -17.25 59.9375 C-18.46440669 64.89632734 -20.72214513 69.44429026 -23 74 C-26.63 74 -30.26 74 -34 74 C-31.95830697 67.03422378 -28.98301039 60.77662374 -25.69140625 54.33984375 C-24.04249404 51.08390855 -22.53849382 47.8028768 -21.0859375 44.45703125 C-19.35471637 40.53998775 -17.52447894 36.66904788 -15.70703125 32.79150391 C-13.78247324 28.68339151 -11.88448099 24.56421105 -10 20.4375 C-6.82734204 13.5434 -3.42995957 6.76858885 0 0 Z " fill="#D02685" transform="translate(430,6)"/>
<path d="M0 0 C6.27 -0.0825 12.54 -0.165 19 -0.25 C20.96324219 -0.28641602 22.92648438 -0.32283203 24.94921875 -0.36035156 C26.52863476 -0.3720486 28.10806295 -0.38223801 29.6875 -0.390625 C30.88922852 -0.4213208 30.88922852 -0.4213208 32.11523438 -0.45263672 C40.04369433 -0.45748297 46.2250553 2.56475793 52 8 C55.17036342 13.05884704 55.05073016 19.18777289 55 25 C53.44455399 29.83916537 50.70253503 32.58227536 47 36 C46.34 36.66 45.68 37.32 45 38 C43.68 38 42.36 38 41 38 C39.65843392 40.89010674 39.65843392 40.89010674 40.96875 43.12890625 C41.4740625 43.93199219 41.979375 44.73507813 42.5 45.5625 C43.05429687 46.44808594 43.60859375 47.33367188 44.1796875 48.24609375 C46.50163435 51.75891034 48.94679335 55.17581012 51.39453125 58.6015625 C53.61820717 61.92355036 55.26549335 65.40250472 57 69 C57.99 69.99 57.99 69.99 59 71 C59 71.99 59 72.98 59 74 C55.7 74 52.4 74 49 74 C48.67 72.68 48.34 71.36 48 70 C47.01 69.67 46.02 69.34 45 69 C44.05078125 66.93359375 44.05078125 66.93359375 43.3125 64.4375 C42.93544922 63.19806641 42.93544922 63.19806641 42.55078125 61.93359375 C42.36902344 61.29550781 42.18726563 60.65742187 42 60 C41.34 60 40.68 60 40 60 C37 54.25 37 54.25 37 52 C36.34 52 35.68 52 35 52 C34.65066406 51.36191406 34.30132812 50.72382812 33.94140625 50.06640625 C33.48636719 49.24011719 33.03132813 48.41382813 32.5625 47.5625 C32.11003906 46.73878906 31.65757813 45.91507813 31.19140625 45.06640625 C30.16337603 43.07691202 30.16337603 43.07691202 29 42 C27.58672053 41.84379445 26.1664541 41.74943827 24.74609375 41.68359375 C23.9770874 41.64548584 23.20808105 41.60737793 22.41577148 41.56811523 C21.43294189 41.52501221 20.4501123 41.48190918 19.4375 41.4375 C16.323125 41.293125 13.20875 41.14875 10 41 C10 51.89 10 62.78 10 74 C6.7 74 3.4 74 0 74 C0 49.58 0 25.16 0 0 Z " fill="#4A227B" transform="translate(6,6)"/>
<path d="M0 0 C4.62 0 9.24 0 14 0 C17.50249225 3.80270587 19.54929648 6.61227754 22 11 C23.31766812 13.01035532 24.65108283 15.01047738 26 17 C26.97453125 18.48113281 26.97453125 18.48113281 27.96875 19.9921875 C30.69618975 24.03089635 33.59860704 27.92892089 36.53125 31.8203125 C38 34 38 34 38 36 C38.66 36 39.32 36 40 36 C41.40234375 37.79296875 41.40234375 37.79296875 42.9375 40.1875 C43.46472656 41.00734375 43.99195313 41.8271875 44.53515625 42.671875 C45.26025391 43.82429688 45.26025391 43.82429688 46 45 C46.928125 46.4540625 46.928125 46.4540625 47.875 47.9375 C49 50 49 50 49 52 C49.99 52.33 50.98 52.66 52 53 C53.5 55.25 53.5 55.25 55 58 C55.99 59.65 56.98 61.3 58 63 C58.33 42.21 58.66 21.42 59 0 C61.97 0 64.94 0 68 0 C68 24.75 68 49.5 68 75 C63.38 75 58.76 75 54 75 C51.36846278 71.95567263 50.35400216 70.51909739 49 67 C47.1205064 63.61903842 47.1205064 63.61903842 44.64453125 60.70703125 C42.51639242 58.49801303 40.98162237 56.07308926 39.3125 53.5 C35.96943198 48.41485616 32.47167754 43.4838572 28.8671875 38.58203125 C27.18428068 36.25483165 25.57703535 33.89965109 24 31.5 C17.61151794 21.76058736 17.61151794 21.76058736 10 13 C10 33.46 10 53.92 10 75 C6.7 75 3.4 75 0 75 C0 50.25 0 25.5 0 0 Z " fill="#8D2481" transform="translate(161,5)"/>
<path d="M0 0 C0.88602402 0.00222061 1.77204803 0.00444122 2.68492126 0.00672913 C3.68588333 0.00680466 4.6868454 0.00688019 5.71813965 0.00695801 C6.80666733 0.01211929 7.89519501 0.01728058 9.01670837 0.02259827 C10.67928932 0.02472069 10.67928932 0.02472069 12.37545776 0.02688599 C15.93168281 0.03250418 19.48784596 0.04505977 23.04405212 0.05775452 C25.44834809 0.06276717 27.85264504 0.06733048 30.25694275 0.07142639 C36.16516716 0.08247952 42.07335522 0.09923535 47.98155212 0.12025452 C47.98155212 3.09025452 47.98155212 6.06025452 47.98155212 9.12025452 C34.45155212 9.12025452 20.92155212 9.12025452 6.98155212 9.12025452 C6.98155212 16.71025452 6.98155212 24.30025452 6.98155212 32.12025452 C19.85155212 32.12025452 32.72155212 32.12025452 45.98155212 32.12025452 C45.98155212 35.09025452 45.98155212 38.06025452 45.98155212 41.12025452 C33.11155212 41.12025452 20.24155212 41.12025452 6.98155212 41.12025452 C6.98155212 49.70025452 6.98155212 58.28025452 6.98155212 67.12025452 C21.17155212 67.12025452 35.36155212 67.12025452 49.98155212 67.12025452 C49.98155212 69.76025452 49.98155212 72.40025452 49.98155212 75.12025452 C32.49155212 75.12025452 15.00155212 75.12025452 -3.01844788 75.12025452 C-3.05855669 56.69248489 -3.05855669 56.69248489 -3.067276 48.86439514 C-3.07326417 43.51355503 -3.08036376 38.16273197 -3.09388733 32.81190491 C-3.10471716 28.50013479 -3.11072491 24.18838293 -3.11332512 19.87660027 C-3.11517919 18.22789154 -3.11879948 16.57918386 -3.12417793 14.93048286 C-3.13138966 12.6292158 -3.13243876 10.32802512 -3.13197327 8.02674866 C-3.13419388 6.71436722 -3.13641449 5.40198578 -3.13870239 4.04983521 C-2.97975044 0.17752673 -2.97975044 0.17752673 0 0 Z " fill="#6F2880" transform="translate(89.01844787597656,4.8797454833984375)"/>
<path d="M0 0 C20.79 0 41.58 0 63 0 C63 2.31 63 4.62 63 7 C54.09 7 45.18 7 36 7 C36 29.11 36 51.22 36 74 C33.36 74 30.72 74 28 74 C27 73 27 73 26.87974548 70.41209412 C26.8830764 68.68334801 26.8830764 68.68334801 26.88647461 66.91967773 C26.88655014 65.61840439 26.88662567 64.31713104 26.88670349 62.97642517 C26.89181091 61.54548098 26.89702692 60.11453718 26.90234375 58.68359375 C26.90420797 57.2277074 26.90563185 55.77182043 26.90663147 54.31593323 C26.91045635 50.47720621 26.92028636 46.63851681 26.93133545 42.79980469 C26.94155022 38.88542184 26.94612923 34.97103294 26.95117188 31.05664062 C26.96190867 23.37107459 26.97950521 15.68554735 27 8 C18.09 8 9.18 8 0 8 C0 5.36 0 2.72 0 0 Z " fill="#AC1E7F" transform="translate(249,6)"/>
<path d="M0 0 C4.33439014 -0.13544969 8.66451135 -0.23436297 13 -0.3125 C14.22074219 -0.35439453 15.44148438 -0.39628906 16.69921875 -0.43945312 C23.28249656 -0.52841634 28.06751765 -0.30670538 33.546875 3.52661133 C35.80216864 5.8133548 36.91285927 7.9851736 37.1875 11.18359375 C36.69175431 17.14287002 36.69175431 17.14287002 34.66015625 19.66015625 C30.15328713 23.43975553 27.42393105 24.12353122 21.6796875 24.09765625 C20.42285156 24.09443359 19.16601562 24.09121094 17.87109375 24.08789062 C16.55238281 24.07951172 15.23367188 24.07113281 13.875 24.0625 C12.53515789 24.05748489 11.195314 24.05292201 9.85546875 24.04882812 C6.57029343 24.03701095 3.28514119 24.01907501 0 24 C0 16.08 0 8.16 0 0 Z " fill="#FDF6FA" transform="translate(341,14)"/>
<path d="M0 0 C4.37537287 -0.08102542 8.74924085 -0.14052099 13.125 -0.1875 C14.3625 -0.21263672 15.6 -0.23777344 16.875 -0.26367188 C18.07382812 -0.27333984 19.27265625 -0.28300781 20.5078125 -0.29296875 C21.60754395 -0.3086792 22.70727539 -0.32438965 23.84033203 -0.34057617 C27.51080657 0.05505912 29.86406674 1.07502463 33 3 C35.96795815 7.45193722 35.63458039 11.77809146 35 17 C32.95426614 20.45658479 31.33219615 21.7785359 28 24 C25.08911133 24.22705078 25.08911133 24.22705078 21.58203125 24.1953125 C20.32841797 24.18886719 19.07480469 24.18242188 17.78320312 24.17578125 C15.81770508 24.15064453 15.81770508 24.15064453 13.8125 24.125 C12.47722013 24.11496639 11.14193311 24.1058412 9.80664062 24.09765625 C6.53768355 24.07405367 3.26881929 24.03818219 0 24 C0 16.08 0 8.16 0 0 Z " fill="#FAF9FB" transform="translate(16,14)"/>
<path d="M0 0 C3 1 3 1 4.1875 3.375 C5 6 5 6 5 9 C5.66 9 6.32 9 7 9 C7.32613281 10.03640625 7.65226562 11.0728125 7.98828125 12.140625 C8.42928347 13.5105468 8.87071223 14.88033133 9.3125 16.25 C9.63250977 17.27287109 9.63250977 17.27287109 9.95898438 18.31640625 C11.18396993 22.08277974 12.53706758 24.92133447 15 28 C15.6875 31.25 15.6875 31.25 16 34 C14.4188708 34.50692692 12.83498617 35.00526443 11.25 35.5 C10.36828125 35.7784375 9.4865625 36.056875 8.578125 36.34375 C6 37 6 37 2 37 C2 37.66 2 38.32 2 39 C-3.85927818 40.67407948 -10.10985609 40.52003714 -16 39 C-15.58946876 34.07362508 -14.49930044 30.58112219 -12.171875 26.23828125 C-10.83380076 23.68255946 -9.66888318 21.07470249 -8.5 18.4375 C-7.07039698 15.25278434 -5.59768617 12.18714368 -3.8125 9.1875 C-2.09148543 6.16088817 -0.97522521 3.33201947 0 0 Z " fill="#FCF3F8" transform="translate(434,17)"/>
</svg>
